<?xml version="1.0" encoding="utf-8"?>
<!-- Generator: Adobe Illustrator 21.0.0, SVG Export Plug-In . SVG Version: 6.00 Build 0)  -->
<svg version="1.1" id="Layer_1" xmlns="http://www.w3.org/2000/svg" xmlns:xlink="http://www.w3.org/1999/xlink" x="0px" y="0px"
	 viewBox="0 0 595.3 633.2" style="enable-background:new 0 0 595.3 633.2;" xml:space="preserve">
<style type="text/css">
	.st0{fill:#09070C;}
	.st1{fill:url(#SVGID_1_);}
	.st2{fill:url(#SVGID_2_);}
	.st3{fill:#FFFFFF;}
</style>
<rect y="312.1" class="st0" width="595.3" height="321.2"/>
<g>
	<linearGradient id="SVGID_1_" gradientUnits="userSpaceOnUse" x1="257.1007" y1="130.0305" x2="342.4551" y2="130.0305">
		<stop  offset="0" style="stop-color:#CC2FF2"/>
		<stop  offset="1" style="stop-color:#08BFF7"/>
	</linearGradient>
	<path class="st1" d="M314.2,124.3c-0.1-0.4-0.3-0.8-0.4-1.1l-0.6-1.6c-1.4-3.8-3.5-9.5-5.6-12.5c-2-2.8-4.8-4.5-7.8-4.5
		c-3,0-5.9,1.6-7.8,4.5c-2.1,3-4.2,8.7-5.6,12.5l-0.4,1c-0.2,0.5-0.4,1.1-0.6,1.7c-16.3,3.1-28.3,11.4-28.3,20.8
		c0,4.2,2.6,8,6.6,9.6c1.3,0.5,2.7,0.8,4,0.8c3.5,0,7.1-1.7,10.1-4.9c9.1-9.6,13.8-31.9,18.4-38.5c2-2.8,5-2.9,7,0
		c1.7,2.4,3.8,8.2,4.9,11.3l0,0c-2.7-0.3-5.6-0.5-8.5-0.5c-1.9,0-3.8,0.2-5.7,0.3l-2,5.4c18.1-1.9,45.1,3.8,45.1,16.4
		c0,2.1-1.3,3.9-3.3,4.7c-2.6,1-5.7,0-8.3-2.8c-3-3.2-5.6-8.4-7.8-13.6l-6.3-1.4c2.7,6.8,6,14.1,10.3,18.7c4.2,4.4,9.5,5.9,14.1,4.1
		c4-1.6,6.6-5.4,6.6-9.6C342.5,135.7,330.5,127.4,314.2,124.3z M274,147c-2.7,2.8-5.7,3.8-8.3,2.8c-2-0.8-3.3-2.7-3.3-4.7
		c0-5.6,8.3-11.8,20.8-14.9C280.7,136.4,277.5,143.3,274,147z"/>
	<g>
		<path class="st0" d="M178.8,184.1l-10.7,27.8h3.9l2.5-6.5h11.7l2.5,6.5h3.8l-10.7-27.8H178.8z M175.8,201.9l4.5-11.6l4.5,11.6
			H175.8z"/>
		<path class="st0" d="M214.2,188.6l1.7-3.1c-1.8-0.9-3.6-2-8.8-2c-4.8,0-8.8,1.8-10.2,6.5c-1.3,4.3-1.2,13.1,0.2,16.6
			c1.3,3.3,3.4,4.8,6.3,5.5c3.1,0.8,7.7,0.7,12.5-1.6l-1.7-3.2c-3.9,2-8.1,1.8-10.2,1.2c-1.8-0.5-3.4-2.1-3.9-4.8
			c-0.5-2.8-0.7-7.7,0-11.7C201.3,186.1,208.8,185.9,214.2,188.6z"/>
		<path class="st0" d="M234.9,201l-9.7-16.9c-1.2,0-2.1,0-3.2,0v27.8h3.4v-20.4l8.3,14.5c0.2,0,2.1,0,2.4,0l8.3-14.5v20.4l3.4,0
			v-27.8c-1.2,0-1.3,0-3.2,0L234.9,201z"/>
		<path class="st0" d="M278.6,197.8c-3.4-2.3-11.5-2.7-11.5-6.7c0-1.9,0.7-4.1,6.1-4.1c2.5,0,4.5,0.3,5.8,1l1.2,0.6l1.7-3.2
			l-1.3-0.7c-1.8-0.9-4.2-1.3-7.4-1.3c-8,0-9.7,4.1-9.7,7.6c0,3,1.5,4.8,3.7,6.1c3.9,2.5,13.3,2.4,11.4,9.1
			c-0.8,2.7-3.1,2.8-6.1,2.8c-4,0-6.9-1-8.7-1.6l-1.1,3.4c1.8,0.6,5.2,1.7,9.9,1.7c6.1,0,9.9-1.7,9.9-8.1
			C282.4,200.5,280.2,198.9,278.6,197.8z"/>
		<rect x="288.9" y="184.1" class="st0" width="3.6" height="27.8"/>
		<path class="st0" d="M337.6,184l-10.7,27.8h3.9l2.5-6.5h11.7l2.5,6.5h3.8L340.6,184H337.6z M334.6,201.9l4.5-11.6l4.5,11.6H334.6z
			"/>
		<path class="st0" d="M375.2,198.9c1.5-1.5,2.2-3.6,2.2-6.2c0-2.6-0.8-4.7-2.2-6.3c-1.5-1.6-3.8-2.4-6.7-2.4h-12v27.8h3.6v-10.5
			h6.9l7.2,10.5h4.3l-7.4-10.8C372.8,200.7,374.2,200,375.2,198.9z M360.1,197.8v-10.2h8.4c1.9,0,3.2,0.4,4,1.3
			c0.9,0.9,1.3,2.2,1.3,3.8c0,1.6-0.4,2.9-1.3,3.8c-0.8,0.9-2.2,1.3-4,1.3H360.1z"/>
		<path class="st0" d="M391.5,187.4c1.7-0.5,5.8-0.9,10.2,1.2l1.7-3.1c-5-2.5-10.5-2.5-13.7-1.2c-6.1,2.5-6.5,8.7-6.1,16.6
			c0.3,8.2,4.2,11.6,11,11.6c5.1,0,7-1.1,8.8-2l-1.7-3.2c-1.7,0.8-2.8,1.6-7,1.6c-6.6,0-7.5-4-7.5-11
			C387.2,193.6,387.3,188.6,391.5,187.4z"/>
		<polygon class="st0" points="427.8,184 427.8,195.7 413.4,195.7 413.4,184 409.8,184 409.8,211.9 413.4,211.9 413.4,199.3 
			427.8,199.3 427.8,211.9 431.4,211.9 431.4,184 		"/>
		<path class="st0" d="M312,187c3.1,0,5.4,0.4,6.7,1.1l1.2,0.6l1.9-3l-1.3-0.7c-1-0.5-2.3-0.9-4.1-1.2c-3.6-0.5-6.7-0.5-9.1,0.3
			c-4.8,1.5-7,5.2-7,10.1v7.4c0,3.3,1,5.9,3,7.9c4.9,4.9,15.6,2.6,17.3,1.6l0.7-0.4v-14.5h-3.6c0,4.6,0,7.6,0,12.2
			c-1.4,0.3-3.5,0.5-6.2,0.5c-2.4,0-4.3-0.6-5.6-1.9c-1.3-1.3-2-3.1-2-5.4v-7.4C303.9,189.1,306.8,187,312,187z"/>
	</g>
</g>
<g>
	<linearGradient id="SVGID_2_" gradientUnits="userSpaceOnUse" x1="254.9628" y1="444.1065" x2="340.3172" y2="444.1065">
		<stop  offset="0" style="stop-color:#CC2FF2"/>
		<stop  offset="1" style="stop-color:#08BFF7"/>
	</linearGradient>
	<path class="st2" d="M312,438.4c-0.1-0.4-0.3-0.8-0.4-1.1l-0.6-1.6c-1.4-3.8-3.5-9.5-5.6-12.5c-2-2.8-4.8-4.5-7.8-4.5
		c-3,0-5.9,1.6-7.8,4.5c-2.1,3-4.2,8.7-5.6,12.5l-0.4,1c-0.2,0.5-0.4,1.1-0.6,1.7c-16.3,3.1-28.3,11.4-28.3,20.8
		c0,4.2,2.6,8,6.6,9.6c1.3,0.5,2.7,0.8,4,0.8c3.5,0,7.1-1.7,10.1-4.9c9.1-9.6,13.8-31.9,18.4-38.5c2-2.8,5-2.9,7,0
		c1.7,2.4,3.8,8.2,4.9,11.3l0,0c-2.7-0.3-5.6-0.5-8.5-0.5c-1.9,0-3.8,0.2-5.7,0.3l-2,5.4c18.1-1.9,45.1,3.8,45.1,16.4
		c0,2.1-1.3,3.9-3.3,4.7c-2.6,1-5.7,0-8.3-2.8c-3-3.2-5.6-8.4-7.8-13.6l-6.3-1.4c2.7,6.8,6,14.1,10.3,18.7c4.2,4.4,9.5,5.9,14.1,4.1
		c4-1.6,6.6-5.4,6.6-9.6C340.3,449.8,328.3,441.5,312,438.4z M271.9,461.1c-2.7,2.8-5.7,3.8-8.3,2.8c-2-0.8-3.3-2.7-3.3-4.7
		c0-5.6,8.3-11.8,20.8-14.9C278.5,450.5,275.4,457.4,271.9,461.1z"/>
	<g>
		<path class="st3" d="M176.7,498.1L166,526h3.9l2.5-6.5H184l2.5,6.5h3.8l-10.7-27.8H176.7z M173.7,516l4.5-11.6l4.5,11.6H173.7z"/>
		<path class="st3" d="M212.1,502.7l1.7-3.1c-1.8-0.9-3.6-2-8.8-2c-4.8,0-8.8,1.8-10.2,6.5c-1.3,4.3-1.2,13.1,0.2,16.6
			c1.3,3.3,3.4,4.8,6.3,5.5c3.1,0.8,7.7,0.7,12.5-1.6l-1.7-3.2c-3.9,2-8.1,1.8-10.2,1.2c-1.8-0.5-3.4-2.1-3.9-4.8
			c-0.5-2.8-0.7-7.7,0-11.7C199.1,500.1,206.6,500,212.1,502.7z"/>
		<path class="st3" d="M232.8,515l-9.7-16.9c-1.2,0-2.1,0-3.2,0V526h3.4v-20.4l8.3,14.5c0.2,0,2.1,0,2.4,0l8.3-14.5V526l3.4,0v-27.8
			c-1.2,0-1.3,0-3.2,0L232.8,515z"/>
		<path class="st3" d="M276.5,511.9c-3.4-2.3-11.5-2.7-11.5-6.7c0-1.9,0.7-4.1,6.1-4.1c2.5,0,4.5,0.3,5.8,1l1.2,0.6l1.7-3.2
			l-1.3-0.7c-1.8-0.9-4.2-1.3-7.4-1.3c-8,0-9.7,4.1-9.7,7.6c0,3,1.5,4.8,3.7,6.1c3.9,2.5,13.3,2.4,11.4,9.1
			c-0.8,2.7-3.1,2.8-6.1,2.8c-4,0-6.9-1-8.7-1.6l-1.1,3.4c1.8,0.6,5.2,1.7,9.9,1.7c6.1,0,9.9-1.7,9.9-8.1
			C280.3,514.6,278.1,513,276.5,511.9z"/>
		<rect x="286.8" y="498.1" class="st3" width="3.6" height="27.8"/>
		<path class="st3" d="M335.5,498.1l-10.7,27.8h3.9l2.5-6.5h11.7l2.5,6.5h3.8l-10.7-27.8H335.5z M332.5,515.9l4.5-11.6l4.5,11.6
			H332.5z"/>
		<path class="st3" d="M373,513c1.5-1.5,2.2-3.6,2.2-6.2c0-2.6-0.8-4.7-2.2-6.3c-1.5-1.6-3.8-2.4-6.7-2.4h-12V526h3.6v-10.5h6.9
			L372,526h4.3l-7.4-10.8C370.7,514.8,372,514.1,373,513z M357.9,511.9v-10.2h8.4c1.9,0,3.2,0.4,4,1.3c0.9,0.9,1.3,2.2,1.3,3.8
			c0,1.6-0.4,2.9-1.3,3.8c-0.8,0.9-2.2,1.3-4,1.3H357.9z"/>
		<path class="st3" d="M389.4,501.4c1.7-0.5,5.8-0.9,10.2,1.2l1.7-3.1c-5-2.5-10.5-2.5-13.7-1.2c-6.1,2.5-6.5,8.7-6.1,16.6
			c0.3,8.2,4.2,11.6,11,11.6c5.1,0,7-1.1,8.8-2l-1.7-3.2c-1.7,0.8-2.8,1.6-7,1.6c-6.6,0-7.5-4-7.5-11
			C385,507.6,385.2,502.7,389.4,501.4z"/>
		<polygon class="st3" points="425.7,498.1 425.7,509.8 411.3,509.8 411.3,498.1 407.7,498.1 407.7,526 411.3,526 411.3,513.4 
			425.7,513.4 425.7,526 429.3,526 429.3,498.1 		"/>
		<path class="st3" d="M309.8,501.1c3.1,0,5.4,0.4,6.7,1.1l1.2,0.6l1.9-3l-1.3-0.7c-1-0.5-2.3-0.9-4.1-1.2c-3.6-0.5-6.7-0.5-9.1,0.3
			c-4.8,1.5-7,5.2-7,10.1v7.4c0,3.3,1,5.9,3,7.9c4.9,4.9,15.6,2.6,17.3,1.6l0.7-0.4v-14.5h-3.6c0,4.6,0,7.6,0,12.2
			c-1.4,0.3-3.5,0.5-6.2,0.5c-2.4,0-4.3-0.6-5.6-1.9c-1.3-1.3-2-3.1-2-5.4v-7.4C301.8,503.2,304.7,501.1,309.8,501.1z"/>
	</g>
</g>
</svg>
